# xmcd
#
# Track frame offsets:
#	150
#	36758
#	61838
#	85155
#	147450
#
# Disc length: 2361 seconds
#
# Revision: 1
# Processed by: cddbd v1.4PL0 Copyright (c) Steve Scherf et al.
# Submitted via: audiograbber 1.81.03
#
DISCID=3d093705
DTITLE=Johnny Winter - Johnny Be Good - Live 80 [CD 1]
DYEAR=1980
DGENRE=Blues
TTITLE0=Hideaway
TTITLE1=Messin' With The Kid
TTITLE2=The Crawl
TTITLE3=Big Ball Blues
TTITLE4=Talk Is Cheap
EXTD=Live In Roslyn, U.S.A., April 10th, 1980
EXTT0=
EXTT1=
EXTT2=
EXTT3=
EXTT4=
PLAYORDER=
